https://steep.app/images/home/joins-sparkles.svg<svg width="555" height="191" viewBox="0 0 555 191" fill="none" xmlns="http://www.w3.org/2000/svg">
<path d="M45 31.2521C46.8318 31.2521 46.8318 31.4823 48.6636 31.4823C50.4954 31.4823 50.4954 31.1394 52.3271 31.1394C54.1589 31.1394 54.1589 31.35 55.9907 31.35C57.8225 31.35 57.8225 31.208 59.6543 31.208" stroke="#191919" stroke-width="1.3" stroke-linecap="round" stroke-linejoin="round"/>
<path d="M71.1985 31.3157C73.0303 31.3157 73.0303 31.2765 74.8621 31.2765C76.6938 31.2765 76.6938 31.4969 78.5256 31.4969C80.3574 31.4969 80.3574 31.2471 82.1892 31.2471C84.021 31.2471 84.021 31.3402 85.8528 31.3402" stroke="#191919" stroke-width="1.3" stroke-linecap="round" stroke-linejoin="round"/>
<path d="M66.0066 24.9338C66.0066 23.2392 65.8303 23.2392 65.8303 21.5445C65.8303 19.8499 65.9822 19.8499 65.9822 18.1601C65.9822 16.4704 65.943 16.4655 65.943 14.7709C65.943 13.0762 66.1928 13.0762 66.1928 11.3816C66.1928 9.68692 65.8499 9.68692 65.8499 7.99228" stroke="#191919" stroke-width="1.3" stroke-linecap="round" stroke-linejoin="round"/>
<path d="M66.2516 61.0553C66.2516 59.248 65.9234 59.248 65.9234 57.4407C65.9234 55.6334 65.8695 55.6334 65.8695 53.8261C65.8695 52.0188 65.9185 52.0188 65.9185 50.2115C65.9185 48.4042 66.1879 48.4042 66.1879 46.5969C66.1879 44.7896 66.2271 44.7896 66.2271 42.9823C66.2271 41.175 66.1585 41.175 66.1585 39.3628C66.1585 37.5506 65.8206 37.5555 65.8206 35.7433" stroke="#191919" stroke-width="1.3" stroke-linecap="round" stroke-linejoin="round"/>
<path d="M65.8157 5.24461C65.8157 3.09936 65.801 3.09936 65.801 0.949219" stroke="#191919" stroke-width="1.3" stroke-linecap="round" stroke-linejoin="round"/>
<path d="M469.588 161.521C471.844 161.521 471.844 161.485 474.1 161.485C476.356 161.485 476.356 161.756 478.612 161.756C480.868 161.756 480.868 161.418 483.124 161.418C485.381 161.418 485.381 161.485 487.637 161.485" stroke="#191919" stroke-width="1.3" stroke-linecap="round" stroke-linejoin="round"/>
<path d="M479.692 177.271C481.116 175.848 481.176 175.914 482.599 174.491C484.023 173.067 484.222 173.266 485.646 171.842C487.069 170.419 486.87 170.22 488.294 168.796" stroke="#191919" stroke-width="1.3" stroke-linecap="round" stroke-linejoin="round"/>
<path d="M506.246 151.169C507.501 149.915 507.434 149.842 508.689 148.582C509.944 147.327 510.016 147.393 511.271 146.138" stroke="#191919" stroke-width="1.3" stroke-linecap="round" stroke-linejoin="round"/>
<path d="M481.074 148.256C482.497 149.679 482.733 149.444 484.15 150.862C485.574 152.285 485.333 152.527 486.756 153.95C488.18 155.374 488.12 155.434 489.543 156.858" stroke="#191919" stroke-width="1.3" stroke-linecap="round" stroke-linejoin="round"/>
<path d="M507.423 174.557C508.678 175.812 508.786 175.709 510.041 176.964C511.296 178.219 511.489 178.032 512.743 179.286" stroke="#191919" stroke-width="1.3" stroke-linecap="round" stroke-linejoin="round"/>
<path d="M506.102 173.175C504.509 171.583 504.377 171.71 502.778 170.117C501.18 168.525 501.234 168.47 499.635 166.878" stroke="#191919" stroke-width="1.3" stroke-linecap="round" stroke-linejoin="round"/>
<path d="M501.861 161.587C504.117 161.587 504.117 161.485 506.373 161.485C508.629 161.485 508.629 161.817 510.885 161.817C513.141 161.817 513.141 161.817 515.397 161.817C517.654 161.817 517.654 161.829 519.91 161.829" stroke="#191919" stroke-width="1.3" stroke-linecap="round" stroke-linejoin="round"/>
<path d="M495.419 153.866C495.419 151.779 495.533 151.779 495.533 149.692C495.533 147.604 495.419 147.604 495.419 145.523C495.419 143.442 495.702 143.436 495.702 141.349C495.702 139.262 495.28 139.262 495.28 137.174C495.28 135.087 495.539 135.087 495.539 133" stroke="#191919" stroke-width="1.3" stroke-linecap="round" stroke-linejoin="round"/>
<path d="M495.389 189.68C495.389 187.43 495.696 187.43 495.696 185.18C495.696 182.93 495.274 182.93 495.274 180.68C495.274 178.43 495.503 178.43 495.503 176.18C495.503 173.929 495.455 173.93 495.455 171.679C495.455 169.429 495.726 169.429 495.726 167.179" stroke="#191919" stroke-width="1.3" stroke-linecap="round" stroke-linejoin="round"/>
<path d="M0.885742 92.4772C2.71753 92.4772 2.71752 92.4919 4.5493 92.4919C6.38109 92.4919 6.38111 92.3841 8.21289 92.3841C10.0447 92.3841 10.0447 92.5702 11.8764 92.5702C13.7082 92.5702 13.7082 92.3841 15.54 92.3841" stroke="#191919" stroke-width="1.3" stroke-linecap="round" stroke-linejoin="round"/>
<path d="M8.32554 100.25C8.32554 99.0157 8.32554 97.7815 8.32554 96.5472C8.32554 94.6959 8.13452 94.6959 8.13452 92.8445" stroke="#191919" stroke-width="1.3" stroke-linecap="round" stroke-linejoin="round"/>
<path d="M8.11987 90.2242C8.11987 88.0789 8.16394 88.0789 8.16394 85.9288" stroke="#191919" stroke-width="1.3" stroke-linecap="round" stroke-linejoin="round"/>
</svg>
